Coordinates
version=1
nRows=6
nColumns=107
inDegrees=yes

Units are S.I. units (second, meters, Newtons, ...)
If the header above contains a line with 'inDegrees', this indicates whether rotational values are in degrees (yes) or radians (no).

endheader
time	sternoclavicular_r2	sternoclavicular_r3	unrotscap_r3	unrotscap_r2	acromioclavicular_r2	acromioclavicular_r3	acromioclavicular_r1	unrothum_r1	unrothum_r3	unrothum_r2	elv_angle	shoulder_elv	shoulder1_r2	shoulder_rot	elbow_flexion	pro_sup	deviation	flexion	proximal_distal_r1	proximal_distal_r3	cmc_flexion	cmc_abduction	mp_flexion	ip_flexion	mcp2_flexion	mcp2_abduction	pm2_flexion	md2_flexion	mcp3_flexion	mcp3_abduction	pm3_flexion	md3_flexion	mcp4_flexion	mcp4_abduction	pm4_flexion	md4_flexion	mcp5_flexion	mcp5_abduction	pm5_flexion	md5_flexion	bicpt_tx	bicpt_ty	bicpt_tz	bicpt2_tx	bicpt2_ty	bicpt2_tz	ptpt_tx	ptpt_ty	ptpt_tz	FCUpt_tx	FCUpt_ty	FCUpt_tz	EDCpt_tx	EDCpt_ty	EDCpt_tz	APLpt_tx	APLpt_ty	APLpt_tz	FPLpt_tx	FPLpt_ty	FPLpt_tz	FPLpt2_tx	FPLpt2_ty	FPLpt2_tz	PEC1pt2_tx	PEC1pt2_ty	PEC1pt2_tz	PEC1pt3_tx	PEC1pt3_ty	PEC1pt3_tz	PEC2pt2_tx	PEC2pt2_ty	PEC2pt2_tz	PEC2pt3_tx	PEC2pt3_ty	PEC2pt3_tz	PEC3pt2_tx	PEC3pt2_ty	PEC3pt2_tz	PEC3pt3_tx	PEC3pt3_ty	PEC3pt3_tz	DELT2pt2a_tx	DELT2pt2a_ty	DELT2pt2a_tz	DELT2pt2_tx	DELT2pt2_ty	DELT2pt2_tz	LAT1pt2_tx	LAT1pt2_ty	LAT1pt2_tz	LAT1pt3_tx	LAT1pt3_ty	LAT1pt3_tz	LAT2pt2_tx	LAT2pt2_ty	LAT2pt2_tz	LAT2pt3_tx	LAT2pt3_ty	LAT2pt3_tz	LAT3pt2_tx	LAT3pt2_ty	LAT3pt2_tz	LAT3pt3_tx	LAT3pt3_ty	LAT3pt3_tz
      1.46666667	     -0.33902365	      0.14359442	     -0.14359442	      0.33902365	     -0.06864539	      0.55476792	      0.24936436	     -0.24936436	     -0.55476792	      0.06864539	     96.24314949	     80.26686307	     -1.67975984	     -3.47166614	     27.32638268	      1.03200845	      0.32018124	      0.91677652	      0.35062129	      0.45838826	     23.51205327	    -19.55394962	     -2.19174107	     10.95939891	      7.44042895	      9.31439089	     22.34106909	    -21.68797809	      4.09739779	     -1.69663477	     10.31412368	     12.55572872	     -0.40994269	     -7.74753745	     -0.53861417	     20.14256612	     -2.83206922	    -13.99243590	     -7.74540452	      5.02303224	      0.00080387	     -0.03073202	     -0.00480449	      0.01476464	     -0.01762335	     -0.01056539	      0.00747375	     -0.06494931	     -0.00013313	      0.00409132	     -0.18409010	      0.00046198	     -0.00012384	      0.00002940	      0.00001468	     -0.00164185	     -0.00065674	     -0.00328369	     -0.00210156	     -0.00630469	     -0.00354639	      0.00000348	     -0.00028068	     -0.00033682	      0.00263097	      0.00923070	      0.00642135	     -0.00860640	      0.02078022	     -0.01970999	      0.00263097	      0.00923070	      0.00642135	      0.00057971	      0.01926406	     -0.01012255	      0.00410006	      0.00513307	      0.01632728	      0.00000000	      0.00862314	      0.00000000	     -0.00753617	     -0.03482693	     -0.00711450	      0.00241156	     -0.00001033	      0.00000789	     -0.00093645	      0.01569664	     -0.00642135	      0.00258638	      0.02265311	     -0.01872895	     -0.00628758	      0.01360079	     -0.00575246	     -0.01311027	      0.02871772	     -0.03215137	     -0.02461519	      0.01520612	     -0.00771454	     -0.01632094	      0.03317700	     -0.04017806
      1.50000000	     -0.34875761	      0.14771726	     -0.14771726	      0.34875761	     -0.07061632	      0.57069627	      0.25652404	     -0.25652404	     -0.57069627	      0.07061632	     95.27585166	     82.57146359	     -1.66287731	      6.42025280	     27.11599188	    -12.64027454	      0.32329064	      0.86293647	      0.35320359	      0.43146824	     22.92283690	    -19.66511326	     -2.35226345	     11.12999033	      6.28107428	      8.76709385	     22.10582304	    -21.78993246	      4.08592435	     -1.65849595	     10.30499046	     12.53346461	     -0.20258855	     -7.41400298	      0.25665113	     19.19261371	     -2.88374552	    -13.93909400	     -7.33583112	      5.00781638	      0.00079691	     -0.03070791	     -0.00480060	      0.01330639	     -0.01756619	     -0.01114686	      0.00848397	     -0.06429608	      0.00096824	      0.00290810	     -0.18419670	      0.00103066	      0.00151683	     -0.00033348	     -0.00022658	     -0.00150651	     -0.00060260	     -0.00301302	     -0.00192833	     -0.00578499	     -0.00325406	      0.00000482	     -0.00028115	     -0.00033738	      0.00270651	      0.00949573	      0.00660572	     -0.00885350	      0.02137685	     -0.02027590	      0.00270651	      0.00949573	      0.00660572	      0.00059635	      0.01981717	     -0.01041319	      0.00418285	      0.00528045	      0.01651251	      0.00000000	      0.00912970	      0.00000000	     -0.00775255	     -0.03582687	     -0.00753444	     -0.00613788	     -0.00017948	     -0.00075858	     -0.00096333	      0.01614732	     -0.00660572	      0.00266064	      0.02330352	     -0.01926669	     -0.00646810	      0.01399129	     -0.00591763	     -0.01348668	      0.02954226	     -0.03307449	     -0.02532194	      0.01564272	     -0.00793604	     -0.01678955	      0.03412957	     -0.04133164
      1.53333333	     -0.34726962	      0.14708702	     -0.14708702	      0.34726962	     -0.07031503	      0.56826136	      0.25542957	     -0.25542957	     -0.56826136	      0.07031503	     95.36354919	     82.21916838	     -1.66440792	      5.71037668	     26.89752900	    -14.69256736	      0.31953227	      0.88765225	      0.35008007	      0.44382612	     22.69097892	    -19.99607664	     -2.64692292	     10.99839986	      5.62378150	      7.30679475	     22.14325532	    -21.77516753	      4.42399418	     -2.30366039	     10.48811461	     12.57955954	      0.77206534	     -7.85738626	      0.57852447	     19.29167668	     -1.56582456	    -14.00649755	     -6.98768946	      5.05134656	      0.00078969	     -0.03068287	     -0.00479657	      0.01305059	     -0.01750685	     -0.01121152	      0.00863561	     -0.06419802	      0.00113357	      0.00273547	     -0.18420812	      0.00112817	      0.00176310	     -0.00038298	     -0.00027154	     -0.00156804	     -0.00062722	     -0.00313608	     -0.00200709	     -0.00602128	     -0.00338697	      0.00000536	     -0.00028123	     -0.00033748	      0.00269496	      0.00945521	      0.00657754	     -0.00881573	      0.02128565	     -0.02018939	      0.00269496	      0.00945521	      0.00657754	      0.00059381	      0.01973262	     -0.01036876	      0.00417032	      0.00525792	      0.01648496	      0.00000000	      0.00905130	      0.00000000	     -0.00771947	     -0.03567401	     -0.00746947	     -0.00548076	     -0.00014539	     -0.00062495	     -0.00095922	      0.01607843	     -0.00657754	      0.00264929	      0.02320410	     -0.01918449	     -0.00644051	      0.01393159	     -0.00589238	     -0.01342914	      0.02941622	     -0.03293337	     -0.02521390	      0.01557598	     -0.00790218	     -0.01671791	      0.03398395	     -0.04115530
      1.56666667	     -0.35364138	      0.14978580	     -0.14978580	      0.35364138	     -0.07160519	      0.57868793	      0.26011624	     -0.26011624	     -0.57868793	      0.07160519	     94.92462707	     83.72774130	     -1.65674728	     11.96859119	     26.81837800	    -24.26446052	      0.34275912	      0.92246726	      0.36901105	      0.46123363	     22.83344059	    -20.24751819	     -3.15082583	     10.84947843	      3.60139003	      6.94318689	     23.25883507	    -20.82553777	      4.02118546	     -2.23446528	     10.39942367	     12.65208558	      1.71918588	     -7.37310528	     -1.15820833	     19.63002398	     -0.04631370	    -13.90736157	     -8.33638933	      5.02438266	      0.00078707	     -0.03067380	     -0.00479511	      0.01173024	     -0.01748534	     -0.01143509	      0.00934287	     -0.06374070	      0.00190463	      0.00194750	     -0.18424558	      0.00162487	      0.00291173	     -0.00059663	     -0.00051138	     -0.00165643	     -0.00066257	     -0.00331287	     -0.00212024	     -0.00636071	     -0.00357790	      0.00000503	     -0.00028119	     -0.00033743	      0.00274441	      0.00962870	      0.00669822	     -0.00897748	      0.02167620	     -0.02055983	      0.00274441	      0.00962870	      0.00669822	      0.00060470	      0.02009467	     -0.01055901	      0.00422366	      0.00535440	      0.01660098	      0.00000000	      0.00938944	      0.00000000	     -0.00786111	     -0.03632857	     -0.00774967	     -0.01150611	     -0.00058190	     -0.00225429	     -0.00097682	      0.01637344	     -0.00669822	      0.00269790	      0.02362985	     -0.01953649	     -0.00655868	      0.01418721	     -0.00600049	     -0.01367554	      0.02995595	     -0.03353764	     -0.02567653	      0.01586177	     -0.00804717	     -0.01702466	      0.03460750	     -0.04191042
      1.60000000	     -0.35245075	      0.14928150	     -0.14928150	      0.35245075	     -0.07136411	      0.57673962	      0.25924049	     -0.25924049	     -0.57673962	      0.07136411	     94.92277427	     83.44584830	     -1.65671495	     11.74165407	     26.65692574	    -27.44874516	      0.34956785	      0.95604052	      0.37439317	      0.47802026	     22.70315054	    -21.02487023	     -3.40440248	     10.73550055	      2.48424363	      5.13708914	     23.05219765	    -20.87493891	      4.23652108	     -3.39546280	     10.52656989	     12.66781338	      2.78034274	     -8.30118606	     -0.87208152	     19.70941901	      1.79503911	    -14.05140804	     -7.98236993	      5.03298642	      0.00078173	     -0.03065529	     -0.00479213	      0.01124454	     -0.01744148	     -0.01148099	      0.00957815	     -0.06358856	      0.00216114	      0.00169164	     -0.18425227	      0.00180540	      0.00329384	     -0.00066144	     -0.00060217	     -0.00174360	     -0.00069744	     -0.00348720	     -0.00223181	     -0.00669542	     -0.00376617	      0.00000533	     -0.00028123	     -0.00033748	      0.00273517	      0.00959628	      0.00667567	     -0.00894726	      0.02160322	     -0.02049061	      0.00273517	      0.00959628	      0.00667567	      0.00060266	      0.02002702	     -0.01052346	      0.00421376	      0.00533637	      0.01657969	      0.00000000	      0.00932577	      0.00000000	     -0.00783464	     -0.03620626	     -0.00769691	     -0.01127828	     -0.00056035	     -0.00217660	     -0.00097354	      0.01631831	     -0.00667567	      0.00268881	      0.02355029	     -0.01947071	     -0.00653660	      0.01413945	     -0.00598029	     -0.01362950	      0.02985510	     -0.03342473	     -0.02559008	      0.01580837	     -0.00802008	     -0.01696734	      0.03449098	     -0.04176932
      1.63333333	     -0.35594899	      0.15076319	     -0.15076319	      0.35594899	     -0.07207243	      0.58246403	      0.26181357	     -0.26181357	     -0.58246403	      0.07207243	     94.74091691	     84.27408784	     -1.65354094	     15.50680316	     26.49418760	    -35.37336050	      0.38311804	      1.03574265	      0.39980531	      0.51787133	     22.88161409	    -21.53388693	     -3.79221190	     10.53973300	      0.80946041	      4.37695071	     22.50213071	    -20.80184833	      3.57863924	     -3.57836591	     10.01588765	     12.51666968	      2.92179880	     -8.06244469	     -2.00645131	     19.43639430	      3.03573634	    -13.98125597	    -10.27057743	      4.90794536	      0.00077635	     -0.03063664	     -0.00478912	      0.00993510	     -0.01739728	     -0.01153351	      0.01016369	     -0.06320994	      0.00279951	      0.00106846	     -0.18425643	      0.00228782	      0.00424479	     -0.00080915	     -0.00085199	     -0.00195810	     -0.00078324	     -0.00391619	     -0.00250636	     -0.00751909	     -0.00422949	      0.00000492	     -0.00028117	     -0.00033740	      0.00276232	      0.00969153	      0.00674193	     -0.00903606	      0.02181764	     -0.02069399	      0.00276232	      0.00969153	      0.00674193	      0.00060865	      0.02022580	     -0.01062791	      0.00424277	      0.00538934	      0.01664177	      0.00000000	      0.00951346	      0.00000000	     -0.00791241	     -0.03656562	     -0.00785242	     -0.01514451	     -0.00097505	     -0.00364520	     -0.00098320	      0.01648028	     -0.00674193	      0.00271550	      0.02378404	     -0.01966397	     -0.00660148	      0.01427979	     -0.00603965	     -0.01376478	      0.03015142	     -0.03375648	     -0.02584408	      0.01596527	     -0.00809968	     -0.01713575	      0.03483332	     -0.04218390
